#!OML:ASF C:\ViconDB\ViconDB\414\Spring2016\042216\male.ASF
:FULLY-SPECIFIED
:DEGREES
547
root 46.6344 17.6114 12.7443 165.884 89.9252 164.326
lowerback -4.113 -1.27592 3.73571
upperback -1.27859 -1.82775 -0.524
thorax 0.855596 -0.909137 -2.71853
lowerneck -1.10826 10.3599 2.06351
upperneck -2.52838 13.8031 -7.73748
head 0.121841 6.94784 -2.63838
rclavicle -2.46307e-014 6.06293e-015
rhumerus -31.6284 3.64749 -95.5405
rradius 47.2093
rwrist 14.7622
rhand 10.0144 -19.8106
rfingers 7.12502
rthumb 35.14 -46.3338
lclavicle -2.46307e-014 6.06293e-015
lhumerus -46.1127 20.9941 73.4823
lradius 30.2034
lwrist -21.3097
lhand -7.01609 12.616
lfingers 7.12502
lthumb 18.8553 41.7221
rfemur -9.18929 4.63565 22.3867
rtibia 29.0198
rfoot -19.7614 -1.34629
rtoes 0.615573
lfemur -7.84068 -4.95118 -22.0561
ltibia 31.7336
lfoot -22.6078 22.6695
ltoes -19.9654
548
root 46.6597 17.6138 12.7401 188.971 89.8843 187.303
lowerback -4.17185 -1.27109 3.74066
upperback -1.27938 -1.82348 -0.539199
thorax 0.887305 -0.906315 -2.73842
lowerneck -1.16593 10.3737 2.17993
upperneck -2.41445 13.8268 -7.78854
head 0.181281 6.95543 -2.66478
rclavicle 1.2393e-014 -7.25564e-015
rhumerus -31.686 4.07648 -95.8498
rradius 46.9553
rwrist 14.2652
rhand 10.0277 -19.8832
rfingers 7.12502
rthumb 35.1526 -46.4035
lclavicle 1.2393e-014 -7.25564e-015
lhumerus -46.008 20.7141 73.6329
lradius 30.356
lwrist -20.9607
lhand -6.82615 12.53
lfingers 7.12502
lthumb 19.038 41.6183
rfemur -9.15922 5.09079 22.4607
rtibia 28.9685
rfoot -19.8421 -1.85048
rtoes 0.319851
lfemur -7.84063 -4.93827 -22.0076
ltibia 31.6982
lfoot -22.6553 22.5556
ltoes -19.9304
549
root 46.6839 17.6153 12.7355 186.874 89.8229 185.127
lowerback -4.20231 -1.2802 3.70274
upperback -1.2735 -1.83536 -0.539599
thorax 0.910722 -0.911667 -2.71904
lowerneck -1.21624 10.4041 2.06593
upperneck -2.33632 13.8712 -7.67455
head 0.199389 6.97515 -2.60324
rclavicle -2.3556e-014 3.47873e-015
rhumerus -31.7617 4.22721 -96.0394
rradius 46.6774
rwrist 14.3411
rhand 10.6119 -19.7064
rfingers 7.12502
rthumb 35.7065 -46.0945
lclavicle -2.3556e-014 3.47873e-015
lhumerus -45.8578 20.5488 73.8522
lradius 30.4926
lwrist -20.325
lhand -6.58258 12.6413
lfingers 7.12502
lthumb 19.2722 41.7063
rfemur -9.0694 5.85258 22.5195
rtibia 28.9079
rfoot -19.9578 -2.64325
rtoes 0.472388
lfemur -7.8696 -4.83222 -21.9867
ltibia 31.675
lfoot -22.7364 22.3722
ltoes -20.0133
550
root 46.7076 17.6163 12.7289 231.069 89.6897 229.323
lowerback -4.1375 -1.27322 3.90217
upperback -1.2744 -1.83224 -0.483776
thorax 0.869141 -0.910958 -2.77147
lowerneck -1.09435 10.4154 2.01844
upperneck -2.36655 13.8848 -7.65126
head 0.164721 6.98502 -2.59673
rclavicle 4.96558e-014 6.16232e-015
rhumerus -31.9098 4.85401 -96.3301
rradius 46.3202
rwrist 13.5631
rhand 10.811 -19.8145
rfingers 7.12502
rthumb 35.8952 -46.1567
lclavicle 4.96558e-014 6.16232e-015
lhumerus -45.7755 20.533 73.9383
lradius 30.5338
lwrist -19.9124
lhand -6.32053 12.6753
lfingers 7.12502
lthumb 19.5242 41.715
rfemur -8.88279 6.35992 22.8119
rtibia 28.807
rfoot -20.0456 -3.1928
rtoes 0.498465
lfemur -7.80227 -4.719 -21.735
ltibia 31.6658
lfoot -22.8946 22.2273
ltoes -19.8605
551
root 46.7294 17.6133 12.7262 195.139 89.6891 193.27
lowerback -4.19874 -1.24919 3.73924
upperback -1.26197 -1.79599 -0.519071
thorax 0.923013 -0.891586 -2.71674
lowerneck -1.28008 10.4173 1.8663
upperneck -2.26616 13.8945 -7.59732
head 0.212725 6.98566 -2.53983
rclavicle 3.03892e-014 1.08338e-014
rhumerus -32.0076 5.12751 -96.5275
rradius 45.9113
rwrist 13.329
rhand 10.8489 -19.7791
rfingers 7.12502
rthumb 35.931 -46.1125
lclavicle 3.03892e-014 1.08338e-014
lhumerus -45.4498 20.6398 74.0693
lradius 30.4547
lwrist -19.9913
lhand -6.21529 12.6646
lfingers 7.12502
lthumb 19.6254 41.694
rfemur -8.86078 6.51855 22.6351
rtibia 28.7364
rfoot -20.102 -3.48639
rtoes 0.418163
lfemur -7.85785 -4.79402 -21.9276
ltibia 31.6488
lfoot -23.0845 22.1608
ltoes -19.5757
